v -10.000000 0.085414 10.000000
v 10.000000 0.435233 10.000000
v -10.000000 -0.346097 -10.000000
v 10.000000 -0.372548 -10.000000
v -10.000000 -0.366260 -8.000000
v -10.000000 0.388395 -6.000000
v -10.000000 -0.357769 -4.000000
v -10.000000 0.054973 -2.000000
v -10.000000 0.284293 0.000000
v -10.000000 -0.081595 2.000000
v -10.000000 -0.462047 4.000000
v -10.000000 -0.063809 6.000000
v -10.000000 -0.012787 8.000000
v -8.000000 0.077368 10.000000
v -6.000000 -0.215306 10.000000
v -4.000000 -0.385046 10.000000
v -2.000000 -0.352598 10.000000
v 0.000000 0.205857 10.000000
v 2.000000 0.251209 10.000000
v 4.000000 0.304150 10.000000
v 6.000000 0.231713 10.000000
v 8.000000 -0.480381 10.000000
v 10.000000 0.162292 8.000000
v 10.000000 -0.199104 6.000000
v 10.000000 0.492308 4.000000
v 10.000000 0.074938 2.000000
v 10.000000 0.031930 0.000000
v 10.000000 0.392772 -2.000000
v 10.000000 0.141293 -4.000000
v 10.000000 -0.218429 -6.000000
v 10.000000 0.014350 -8.000000
v 8.000000 -0.295485 -10.000000
v 6.000000 -0.373381 -10.000000
v 4.000000 0.387157 -10.000000
v 2.000000 -0.151718 -10.000000
v 0.000000 0.182478 -10.000000
v -2.000000 -0.077296 -10.000000
v -4.000000 -0.275468 -10.000000
v -6.000000 -0.216611 -10.000000
v -8.000000 0.000685 -10.000000
v -8.000000 0.469929 8.000000
v -8.000000 -0.007389 6.000000
v -8.000000 -0.426074 4.000000
v -8.000000 0.394467 2.000000
v -8.000000 0.414084 0.000000
v -8.000000 0.256071 -2.000000
v -8.000000 -0.283255 -4.000000
v -8.000000 0.325173 -6.000000
v -8.000000 0.111256 -8.000000
v -6.000000 0.347799 8.000000
v -6.000000 0.324299 6.000000
v -6.000000 0.340885 4.000000
v -6.000000 -0.400041 2.000000
v -6.000000 -0.301378 0.000000
v -6.000000 -0.434448 -2.000000
v -6.000000 0.422319 -4.000000
v -6.000000 -0.066097 -6.000000
v -6.000000 0.248796 -8.000000
v -4.000000 -0.017614 8.000000
v -4.000000 -0.291285 6.000000
v -4.000000 -0.293718 4.000000
v -4.000000 0.479177 2.000000
v -4.000000 -0.269905 0.000000
v -4.000000 -0.358307 -2.000000
v -4.000000 0.379281 -4.000000
v -4.000000 -0.273970 -6.000000
v -4.000000 -0.098790 -8.000000
v -2.000000 -0.305546 8.000000
v -2.000000 0.230112 6.000000
v -2.000000 -0.358969 4.000000
v -2.000000 -0.316829 2.000000
v -2.000000 -0.435740 0.000000
v -2.000000 0.190290 -2.000000
v -2.000000 0.188688 -4.000000
v -2.000000 0.210680 -6.000000
v -2.000000 -0.364100 -8.000000
v 0.000000 -0.248955 8.000000
v 0.000000 0.424786 6.000000
v 0.000000 0.272895 4.000000
v 0.000000 0.220410 2.000000
v 0.000000 -0.382840 0.000000
v 0.000000 0.044896 -2.000000
v 0.000000 0.483691 -4.000000
v 0.000000 0.056515 -6.000000
v 0.000000 -0.278704 -8.000000
v 2.000000 0.467276 8.000000
v 2.000000 -0.232216 6.000000
v 2.000000 0.499304 4.000000
v 2.000000 0.143560 2.000000
v 2.000000 0.244367 0.000000
v 2.000000 0.079150 -2.000000
v 2.000000 -0.441497 -4.000000
v 2.000000 0.091088 -6.000000
v 2.000000 -0.132231 -8.000000
v 4.000000 -0.133909 8.000000
v 4.000000 0.148394 6.000000
v 4.000000 -0.346295 4.000000
v 4.000000 -0.199198 2.000000
v 4.000000 0.266909 0.000000
v 4.000000 -0.465334 -2.000000
v 4.000000 0.321691 -4.000000
v 4.000000 0.385244 -6.000000
v 4.000000 0.108905 -8.000000
v 6.000000 -0.311159 8.000000
v 6.000000 -0.126244 6.000000
v 6.000000 -0.251853 4.000000
v 6.000000 0.331243 2.000000
v 6.000000 0.021591 0.000000
v 6.000000 -0.091918 -2.000000
v 6.000000 -0.281583 -4.000000
v 6.000000 -0.321055 -6.000000
v 6.000000 0.382977 -8.000000
v 8.000000 0.065327 8.000000
v 8.000000 -0.357347 6.000000
v 8.000000 0.199175 4.000000
v 8.000000 -0.352533 2.000000
v 8.000000 -0.067071 0.000000
v 8.000000 -0.106630 -2.000000
v 8.000000 0.303361 -4.000000
v 8.000000 -0.062682 -6.000000
v 8.000000 0.076638 -8.000000
f 30 31 120
f 4 39 2
f 57 39 48
f 66 38 57
f 66 36 37
f 84 36 75
f 84 34 35
f 102 34 93
f 111 33 102
f 120 32 111
f 13 12 0
f 12 41 11
f 11 42 10
f 42 9 10
f 43 8 9
f 8 45 7
f 7 46 6
f 46 5 6
f 5 48 4
f 13 49 40
f 40 50 41
f 41 51 42
f 42 52 43
f 43 53 44
f 53 45 44
f 54 46 45
f 55 47 46
f 47 57 48
f 14 58 49
f 58 50 49
f 50 60 51
f 60 52 51
f 52 62 53
f 53 63 54
f 63 55 54
f 64 56 55
f 56 66 57
f 15 67 58
f 67 59 58
f 59 69 60
f 60 70 61
f 70 62 61
f 71 63 62
f 72 64 63
f 64 74 65
f 65 75 66
f 16 76 67
f 76 68 67
f 68 78 69
f 69 79 70
f 70 80 71
f 71 81 72
f 81 73 72
f 73 83 74
f 83 75 74
f 17 85 76
f 76 86 77
f 77 87 78
f 78 88 79
f 79 89 80
f 89 81 80
f 90 82 81
f 82 92 83
f 83 93 84
f 19 85 18
f 94 86 85
f 86 96 87
f 96 88 87
f 88 98 89
f 98 90 89
f 99 91 90
f 100 92 91
f 92 102 93
f 20 94 19
f 94 104 95
f 104 96 95
f 105 97 96
f 106 98 97
f 98 108 99
f 99 109 100
f 100 110 101
f 101 111 102
f 20 112 103
f 103 113 104
f 113 105 104
f 105 115 106
f 115 107 106
f 116 108 107
f 117 109 108
f 109 119 110
f 110 120 111
f 1 112 21
f 112 23 113
f 23 114 113
f 114 25 115
f 25 116 115
f 26 117 116
f 27 118 117
f 28 119 118
f 119 30 120
f 30 3 31
f 4 48 39
f 57 38 39
f 66 37 38
f 66 75 36
f 84 35 36
f 84 93 34
f 102 33 34
f 111 32 33
f 120 31 32
f 13 40 12
f 12 40 41
f 11 41 42
f 42 43 9
f 43 44 8
f 8 44 45
f 7 45 46
f 46 47 5
f 5 47 48
f 13 14 49
f 40 49 50
f 41 50 51
f 42 51 52
f 43 52 53
f 53 54 45
f 54 55 46
f 55 56 47
f 47 56 57
f 14 15 58
f 58 59 50
f 50 59 60
f 60 61 52
f 52 61 62
f 53 62 63
f 63 64 55
f 64 65 56
f 56 65 66
f 15 16 67
f 67 68 59
f 59 68 69
f 60 69 70
f 70 71 62
f 71 72 63
f 72 73 64
f 64 73 74
f 65 74 75
f 16 17 76
f 76 77 68
f 68 77 78
f 69 78 79
f 70 79 80
f 71 80 81
f 81 82 73
f 73 82 83
f 83 84 75
f 17 18 85
f 76 85 86
f 77 86 87
f 78 87 88
f 79 88 89
f 89 90 81
f 90 91 82
f 82 91 92
f 83 92 93
f 19 94 85
f 94 95 86
f 86 95 96
f 96 97 88
f 88 97 98
f 98 99 90
f 99 100 91
f 100 101 92
f 92 101 102
f 20 103 94
f 94 103 104
f 104 105 96
f 105 106 97
f 106 107 98
f 98 107 108
f 99 108 109
f 100 109 110
f 101 110 111
f 20 21 112
f 103 112 113
f 113 114 105
f 105 114 115
f 115 116 107
f 116 117 108
f 117 118 109
f 109 118 119
f 110 119 120
f 1 22 112
f 112 22 23
f 23 24 114
f 114 24 25
f 25 26 116
f 26 27 117
f 27 28 118
f 28 29 119
f 119 29 30
