v 10.000000 0.000000 -10.000000
v 10.000000 -1.000000 -10.000000
v 10.000000 0.000000 10.000000
v 10.000000 -1.000000 10.000000
v -10.000000 0.000000 -10.000000
v -10.000000 -1.000000 -10.000000
v -10.000000 0.000000 10.000000
v -10.000000 -1.000000 10.000000
v 11.000000 0.000000 -10.000000
v 11.000000 -1.000000 -10.000000
v 11.000000 0.000000 10.000000
v 11.000000 -1.000000 10.000000
v -10.000000 -1.000000 11.000000
v -10.000000 0.000000 11.000000
v 10.000000 0.000000 11.000000
v 10.000000 -1.000000 11.000000
v -11.000000 -1.000000 -10.000000
v -11.000000 -1.000000 10.000000
v -11.000000 0.000000 10.000000
v -11.000000 0.000000 -10.000000
v 10.000000 -1.000000 -11.000000
v -10.000000 -1.000000 -11.000000
v 10.000000 0.000000 -11.000000
v -10.000000 0.000000 -11.000000
v -10.000000 5.000000 -10.000000
v 10.000000 5.000000 -10.000000
v -10.000000 5.000000 -11.000000
v 10.000000 5.000000 -11.000000
v -10.000000 5.000000 10.000000
v -11.000000 5.000000 10.000000
v -11.000000 5.000000 -10.000000
v 10.000000 5.000000 10.000000
v 10.000000 5.000000 11.000000
v -10.000000 5.000000 11.000000
v 11.000000 5.000000 -10.000000
v 11.000000 5.000000 10.000000
f 13 28 6
f 7 16 5
f 1 7 5
f 3 10 2
f 1 22 0
f 8 11 9
f 0 9 1
f 1 11 3
f 2 25 0
f 14 12 15
f 2 15 3
f 7 13 6
f 3 12 7
f 18 16 17
f 6 29 18
f 5 19 4
f 6 17 7
f 23 20 21
f 4 21 5
f 5 20 1
f 4 26 23
f 25 26 24
f 0 24 4
f 22 25 0
f 23 27 22
f 24 29 28
f 4 28 6
f 18 30 19
f 19 24 4
f 28 32 31
f 14 33 13
f 2 32 14
f 6 31 2
f 31 34 25
f 0 34 8
f 8 35 10
f 10 31 2
f 0 6 2
f 13 33 28
f 7 17 16
f 1 3 7
f 3 11 10
f 1 20 22
f 8 10 11
f 0 8 9
f 1 9 11
f 2 31 25
f 14 13 12
f 2 14 15
f 7 12 13
f 3 15 12
f 18 19 16
f 6 28 29
f 5 16 19
f 6 18 17
f 23 22 20
f 4 23 21
f 5 21 20
f 4 24 26
f 25 27 26
f 0 25 24
f 22 27 25
f 23 26 27
f 24 30 29
f 4 24 28
f 18 29 30
f 19 30 24
f 28 33 32
f 14 32 33
f 2 31 32
f 6 28 31
f 31 35 34
f 0 25 34
f 8 34 35
f 10 35 31
f 0 4 6
v -9.000000 0.000000 9.000000
v -9.000000 2.000000 9.000000
v -9.000000 0.000000 3.000000
v -9.000000 2.000000 7.000000
v -3.000000 0.000000 9.000000
v -7.000000 2.000000 9.000000
v -3.000000 0.000000 7.000000
v -7.000000 2.000000 7.000000
v -7.000000 0.000000 3.000000
f 36 39 38
f 44 43 42
f 43 40 42
f 41 36 40
f 42 40 36
f 39 41 43
f 39 44 38
f 38 44 36
f 44 42 36
f 36 37 39
f 43 41 40
f 41 37 36
f 39 37 41
f 39 43 44
v -9.000000 0.000000 -9.000000
v -9.000000 2.000000 -9.000000
v -3.000000 0.000000 -9.000000
v -7.000000 2.000000 -9.000000
v -9.000000 0.000000 -3.000000
v -9.000000 2.000000 -7.000000
v -7.000000 0.000000 -3.000000
v -7.000000 2.000000 -7.000000
v -3.000000 0.000000 -7.000000
v -7.000000 0.000000 -7.000000
f 45 48 47
f 52 51 54
f 52 49 51
f 50 45 49
f 54 49 45
f 48 50 52
f 48 53 47
f 53 52 54
f 47 54 45
f 45 46 48
f 52 50 49
f 50 46 45
f 54 51 49
f 48 46 50
f 48 52 53
f 47 53 54
v 5.000000 0.000000 3.000000
v 5.000000 4.000000 2.000000
v 5.000000 0.000000 -9.000000
v 5.000000 4.000000 -1.000000
v 9.000000 0.000000 1.000000
v 9.000000 4.000000 2.000000
v 9.000000 0.000000 -9.000000
v 9.000000 4.000000 -1.000000
v 7.000000 0.000000 1.000000
v 7.000000 4.000000 2.000000
v 7.000000 0.000000 3.000000
f 55 58 57
f 58 61 57
f 62 59 61
f 56 65 64
f 61 63 57
f 58 56 64
f 60 63 59
f 62 58 64
f 60 62 64
f 63 64 65
f 55 63 65
f 55 56 58
f 58 62 61
f 62 60 59
f 56 55 65
f 61 59 63
f 60 64 63
f 55 57 63
