# Blender 4.5.2 LTS
# www.blender.org
mtllib Ground.mtl
o Plane
v -10.000000 0.085414 10.000000
v 10.000000 0.435233 10.000000
v -10.000000 -0.346097 -10.000000
v 10.000000 -0.372548 -10.000000
v -10.000000 -0.366260 -8.000000
v -10.000000 0.388395 -6.000000
v -10.000000 -0.357769 -4.000000
v -10.000000 0.054973 -2.000000
v -10.000000 0.284293 0.000000
v -10.000000 -0.081595 2.000000
v -10.000000 -0.462047 4.000000
v -10.000000 -0.063809 6.000000
v -10.000000 -0.012787 8.000000
v -8.000000 0.077368 10.000000
v -6.000000 -0.215306 10.000000
v -4.000000 -0.385046 10.000000
v -2.000000 -0.352598 10.000000
v 0.000000 0.205857 10.000000
v 2.000000 0.251209 10.000000
v 4.000000 0.304150 10.000000
v 6.000000 0.231713 10.000000
v 8.000000 -0.480381 10.000000
v 10.000000 0.162292 8.000000
v 10.000000 -0.199104 6.000000
v 10.000000 0.492308 4.000000
v 10.000000 0.074938 2.000000
v 10.000000 0.031930 0.000000
v 10.000000 0.392772 -2.000000
v 10.000000 0.141293 -4.000000
v 10.000000 -0.218429 -6.000000
v 10.000000 0.014350 -8.000000
v 8.000000 -0.295485 -10.000000
v 6.000000 -0.373381 -10.000000
v 4.000000 0.387157 -10.000000
v 2.000000 -0.151718 -10.000000
v 0.000000 0.182478 -10.000000
v -2.000000 -0.077296 -10.000000
v -4.000000 -0.275468 -10.000000
v -6.000000 -0.216611 -10.000000
v -8.000000 0.000685 -10.000000
v -8.000000 0.469929 8.000000
v -8.000000 -0.007389 6.000000
v -8.000000 -0.426074 4.000000
v -8.000000 0.394467 2.000000
v -8.000000 0.414084 0.000000
v -8.000000 0.256071 -2.000000
v -8.000000 -0.283255 -4.000000
v -8.000000 0.325173 -6.000000
v -8.000000 0.111256 -8.000000
v -6.000000 0.347799 8.000000
v -6.000000 0.324299 6.000000
v -6.000000 0.340885 4.000000
v -6.000000 -0.400041 2.000000
v -6.000000 -0.301378 0.000000
v -6.000000 -0.434448 -2.000000
v -6.000000 0.422319 -4.000000
v -6.000000 -0.066097 -6.000000
v -6.000000 0.248796 -8.000000
v -4.000000 -0.017614 8.000000
v -4.000000 -0.291285 6.000000
v -4.000000 -0.293718 4.000000
v -4.000000 0.479177 2.000000
v -4.000000 -0.269905 0.000000
v -4.000000 -0.358307 -2.000000
v -4.000000 0.379281 -4.000000
v -4.000000 -0.273970 -6.000000
v -4.000000 -0.098790 -8.000000
v -2.000000 -0.305546 8.000000
v -2.000000 0.230112 6.000000
v -2.000000 -0.358969 4.000000
v -2.000000 -0.316829 2.000000
v -2.000000 -0.435740 0.000000
v -2.000000 0.190290 -2.000000
v -2.000000 0.188688 -4.000000
v -2.000000 0.210680 -6.000000
v -2.000000 -0.364100 -8.000000
v 0.000000 -0.248955 8.000000
v 0.000000 0.424786 6.000000
v 0.000000 0.272895 4.000000
v 0.000000 0.220410 2.000000
v 0.000000 -0.382840 0.000000
v 0.000000 0.044896 -2.000000
v 0.000000 0.483691 -4.000000
v 0.000000 0.056515 -6.000000
v 0.000000 -0.278704 -8.000000
v 2.000000 0.467276 8.000000
v 2.000000 -0.232216 6.000000
v 2.000000 0.499304 4.000000
v 2.000000 0.143560 2.000000
v 2.000000 0.244367 0.000000
v 2.000000 0.079150 -2.000000
v 2.000000 -0.441497 -4.000000
v 2.000000 0.091088 -6.000000
v 2.000000 -0.132231 -8.000000
v 4.000000 -0.133909 8.000000
v 4.000000 0.148394 6.000000
v 4.000000 -0.346295 4.000000
v 4.000000 -0.199198 2.000000
v 4.000000 0.266909 0.000000
v 4.000000 -0.465334 -2.000000
v 4.000000 0.321691 -4.000000
v 4.000000 0.385244 -6.000000
v 4.000000 0.108905 -8.000000
v 6.000000 -0.311159 8.000000
v 6.000000 -0.126244 6.000000
v 6.000000 -0.251853 4.000000
v 6.000000 0.331243 2.000000
v 6.000000 0.021591 0.000000
v 6.000000 -0.091918 -2.000000
v 6.000000 -0.281583 -4.000000
v 6.000000 -0.321055 -6.000000
v 6.000000 0.382977 -8.000000
v 8.000000 0.065327 8.000000
v 8.000000 -0.357347 6.000000
v 8.000000 0.199175 4.000000
v 8.000000 -0.352533 2.000000
v 8.000000 -0.067071 0.000000
v 8.000000 -0.106630 -2.000000
v 8.000000 0.303361 -4.000000
v 8.000000 -0.062682 -6.000000
v 8.000000 0.076638 -8.000000
vn 0.0306 0.9827 -0.1828
vn -0.1708 0.9852 0.0099
vn -0.0685 0.9961 -0.0551
vn 0.1669 0.9603 -0.2235
vn -0.0982 0.9913 -0.0876
vn -0.0422 0.9890 0.1418
vn 0.1607 0.9618 0.2218
vn -0.1197 0.9928 -0.0097
vn -0.1345 0.9815 0.1365
vn 0.1418 0.9259 -0.3502
vn 0.0040 0.9988 -0.0490
vn -0.0282 0.9993 -0.0255
vn -0.0176 0.9806 -0.1953
vn -0.0177 0.9822 0.1868
vn -0.2280 0.9578 0.1752
vn -0.0994 0.9886 -0.1133
vn -0.0365 0.9787 -0.2020
vn -0.0349 0.9363 0.3493
vn -0.2180 0.9131 -0.3445
vn 0.0598 0.9795 0.1923
vn -0.1593 0.9603 -0.2292
vn -0.3514 0.9164 -0.1918
vn 0.3450 0.8684 0.3563
vn 0.3368 0.9415 0.0092
vn 0.3359 0.9390 -0.0742
vn 0.3162 0.9160 -0.2470
vn -0.3198 0.9065 0.2758
vn -0.0682 0.9920 -0.1061
vn 0.1732 0.9480 0.2669
vn 0.1797 0.9837 -0.0116
vn 0.3024 0.9531 0.0079
vn 0.2852 0.8988 -0.3330
vn -0.0157 0.9987 0.0493
vn -0.0380 0.9971 -0.0663
vn -0.0350 0.9186 0.3935
vn 0.0209 0.9712 -0.2372
vn 0.1692 0.9736 0.1533
vn 0.1402 0.9738 0.1789
vn 0.1412 0.9808 -0.1342
vn 0.0326 0.9995 -0.0012
vn 0.3480 0.8745 0.3379
vn 0.3492 0.8775 -0.3287
vn 0.0826 0.9956 -0.0440
vn -0.2492 0.9086 0.3351
vn -0.2245 0.9263 -0.3026
vn 0.1310 0.9876 0.0865
vn -0.0283 0.9993 0.0235
vn -0.0273 0.9656 0.2586
vn -0.2900 0.9180 -0.2704
vn -0.2594 0.9656 0.0203
vn -0.0264 0.9979 -0.0593
vn 0.0692 0.9521 0.2980
vn 0.0725 0.9974 -0.0008
vn 0.0768 0.9970 0.0110
vn 0.0739 0.9585 -0.2755
vn -0.3297 0.9206 -0.2093
vn 0.2972 0.9048 0.3048
vn -0.1122 0.9908 -0.0752
vn 0.0384 0.9989 -0.0262
vn -0.2876 0.9170 -0.2766
vn -0.2932 0.9349 0.1999
vn -0.0167 0.9766 0.2143
vn -0.0169 0.9778 -0.2088
vn -0.0720 0.9837 -0.1649
vn -0.0263 0.9939 0.1074
vn 0.2730 0.9081 -0.3176
vn 0.3690 0.8729 0.3193
vn 0.3843 0.9089 -0.1617
vn -0.0113 0.9987 0.0503
vn -0.0112 0.9965 -0.0823
vn 0.2548 0.9358 -0.2436
vn -0.3460 0.9066 0.2414
vn -0.1190 0.9868 -0.1102
vn 0.0354 0.9762 -0.2138
vn 0.1347 0.9812 0.1385
vn 0.1321 0.9622 -0.2380
vn -0.0470 0.9962 0.0733
vn -0.2501 0.9430 0.2198
vn -0.1727 0.9249 -0.3386
vn 0.2702 0.8959 0.3526
vn 0.3328 0.9425 0.0299
vn -0.1345 0.9816 -0.1356
vn -0.1787 0.9495 -0.2577
vn 0.1143 0.9892 0.0915
vn 0.1146 0.9915 -0.0623
vn 0.3119 0.9122 0.2659
vn 0.3201 0.9362 -0.1450
vn 0.0442 0.9974 -0.0566
vn 0.0073 0.9955 -0.0944
vn -0.1281 0.9916 -0.0196
vn 0.1430 0.9336 0.3286
vn -0.4040 0.8825 0.2408
vn -0.0772 0.9755 -0.2062
vn -0.0760 0.9606 0.2673
vn -0.2018 0.9442 -0.2605
vn -0.2070 0.9685 0.1382
vn -0.0494 0.9986 -0.0198
vn -0.2376 0.9516 0.1951
vn 0.0795 0.9806 -0.1795
vn 0.0311 0.9971 0.0695
vn 0.0378 0.9811 -0.1898
vn -0.2319 0.9713 -0.0537
vn 0.1052 0.9686 -0.2254
vn 0.0293 0.9957 -0.0880
vn 0.1302 0.9814 0.1407
vn -0.1256 0.9667 0.2229
vn -0.0730 0.9973 -0.0097
vn -0.2578 0.9570 0.1331
vn 0.3351 0.8813 -0.3333
vn -0.0383 0.9824 -0.1828
vn -0.2305 0.9549 0.1874
vn -0.2286 0.9469 -0.2260
vn -0.0276 0.9784 -0.2048
vn -0.2151 0.9035 0.3707
vn -0.0648 0.9979 0.0098
vn -0.0646 0.9948 -0.0786
vn -0.0966 0.9610 -0.2591
vn 0.0302 0.9563 0.2909
vn 0.0314 0.9938 -0.1063
vn 0.1395 0.9532 0.2684
vn 0.0609 0.9981 -0.0117
vn -0.1636 0.9865 0.0082
vn -0.3384 0.8824 -0.3269
vn 0.3688 0.9284 0.0458
vn 0.3257 0.9434 -0.0628
vn -0.3085 0.8744 0.3746
vn 0.1867 0.9544 -0.2331
vn 0.1897 0.9699 0.1527
vn 0.0832 0.9801 0.1801
vn 0.2917 0.9477 -0.1297
vn 0.2942 0.9558 -0.0012
vn -0.3794 0.8630 0.3335
vn -0.3807 0.8660 -0.3243
vn -0.0157 0.9989 -0.0442
vn 0.0202 0.9380 0.3459
vn 0.0983 0.9460 -0.3090
vn 0.1030 0.9909 0.0868
vn -0.0162 0.9996 0.0235
vn -0.2442 0.9367 0.2509
vn -0.2426 0.9306 -0.2741
vn 0.0326 0.9992 0.0211
vn 0.0825 0.9948 -0.0591
vn -0.2532 0.9232 0.2890
vn 0.0949 0.9955 -0.0008
vn 0.0949 0.9954 0.0109
vn -0.2268 0.9360 -0.2690
vn -0.2627 0.9409 -0.2140
vn -0.0919 0.9437 0.3179
vn -0.0966 0.9925 -0.0754
vn -0.3012 0.9532 -0.0250
vn -0.2491 0.9272 -0.2797
vn -0.0259 0.9776 0.2091
vn -0.1426 0.9668 0.2121
vn -0.1428 0.9679 -0.2067
vn -0.0421 0.9854 -0.1652
vn -0.0225 0.9940 0.1074
vn -0.3202 0.8942 -0.3128
vn 0.2948 0.8974 0.3282
vn -0.1108 0.9785 -0.1740
vn 0.0383 0.9980 0.0503
vn -0.0171 0.9965 -0.0823
vn 0.4086 0.8833 -0.2299
vn 0.4081 0.8822 0.2349
vn -0.0172 0.9937 -0.1110
vn 0.2817 0.9373 -0.2053
vn -0.1852 0.9731 0.1373
vn -0.1817 0.9546 -0.2361
vn 0.1685 0.9831 0.0723
vn 0.1646 0.9606 0.2239
vn 0.2477 0.9098 -0.3331
vn -0.3346 0.8769 0.3451
vn -0.1454 0.9889 0.0314
vn -0.1442 0.9802 -0.1354
vn 0.0852 0.9616 -0.2610
vn 0.0879 0.9919 0.0917
vn -0.0471 0.9969 -0.0626
vn -0.2467 0.9303 0.2712
vn 0.1203 0.9810 -0.1519
vn 0.1216 0.9910 -0.0562
vn -0.1827 0.9788 -0.0928
vn 0.2887 0.9572 -0.0189
vn 0.3160 0.8949 0.3150
vn 0.3249 0.9124 0.2490
vn -0.1811 0.9622 -0.2033
vn -0.2123 0.9414 0.2620
vn -0.2124 0.9420 -0.2599
vn 0.0438 0.9890 0.1412
vn 0.0074 0.9998 -0.0198
vn -0.2754 0.9417 0.1931
vn -0.2765 0.9453 -0.1730
vn -0.1278 0.9894 0.0689
vn -0.0480 0.9897 -0.1351
vn -0.0477 0.9829 -0.1776
vn -0.1372 0.9362 0.3236
vn -0.1420 0.9690 -0.2022
vn -0.0494 0.9985 -0.0215
vn -0.2386 0.9557 0.1724
vn 0.0801 0.9890 -0.1244
vn 0.0764 0.9813 -0.1765
vn 0.0771 0.9903 0.1153
vt 1.000000 0.900000
vt 0.900000 1.000000
vt 0.900000 0.900000
vt 0.000000 0.900000
vt 0.100000 1.000000
vt 0.000000 1.000000
vt 0.200000 0.900000
vt 0.100000 0.900000
vt 0.300000 0.900000
vt 0.200000 1.000000
vt 0.400000 1.000000
vt 0.300000 1.000000
vt 0.500000 0.900000
vt 0.400000 0.900000
vt 0.600000 1.000000
vt 0.500000 1.000000
vt 0.700000 0.900000
vt 0.600000 0.900000
vt 0.800000 0.900000
vt 0.700000 1.000000
vt 0.800000 1.000000
vt 0.100000 0.000000
vt 0.000000 0.100000
vt 0.000000 0.000000
vt 0.100000 0.200000
vt 0.000000 0.200000
vt 0.100000 0.300000
vt 0.000000 0.300000
vt 0.000000 0.400000
vt 0.100000 0.400000
vt 0.000000 0.500000
vt 0.100000 0.600000
vt 0.000000 0.600000
vt 0.100000 0.700000
vt 0.000000 0.700000
vt 0.000000 0.800000
vt 0.200000 0.100000
vt 0.100000 0.100000
vt 0.200000 0.200000
vt 0.200000 0.300000
vt 0.200000 0.400000
vt 0.200000 0.500000
vt 0.100000 0.500000
vt 0.200000 0.600000
vt 0.200000 0.700000
vt 0.100000 0.800000
vt 0.200000 0.000000
vt 0.300000 0.100000
vt 0.300000 0.300000
vt 0.300000 0.500000
vt 0.300000 0.600000
vt 0.300000 0.700000
vt 0.200000 0.800000
vt 0.300000 0.000000
vt 0.400000 0.100000
vt 0.300000 0.200000
vt 0.400000 0.300000
vt 0.400000 0.400000
vt 0.300000 0.400000
vt 0.400000 0.500000
vt 0.400000 0.600000
vt 0.400000 0.800000
vt 0.300000 0.800000
vt 0.400000 0.000000
vt 0.500000 0.100000
vt 0.400000 0.200000
vt 0.500000 0.300000
vt 0.500000 0.400000
vt 0.500000 0.500000
vt 0.500000 0.600000
vt 0.400000 0.700000
vt 0.500000 0.800000
vt 0.500000 0.000000
vt 0.600000 0.100000
vt 0.600000 0.200000
vt 0.500000 0.200000
vt 0.600000 0.300000
vt 0.600000 0.400000
vt 0.600000 0.500000
vt 0.600000 0.600000
vt 0.500000 0.700000
vt 0.600000 0.800000
vt 0.700000 0.000000
vt 0.600000 0.000000
vt 0.700000 0.100000
vt 0.700000 0.300000
vt 0.700000 0.500000
vt 0.700000 0.600000
vt 0.600000 0.700000
vt 0.700000 0.700000
vt 0.800000 0.000000
vt 0.800000 0.200000
vt 0.700000 0.200000
vt 0.800000 0.300000
vt 0.700000 0.400000
vt 0.800000 0.400000
vt 0.800000 0.600000
vt 0.800000 0.700000
vt 0.800000 0.800000
vt 0.700000 0.800000
vt 0.900000 0.100000
vt 0.800000 0.100000
vt 0.900000 0.200000
vt 0.900000 0.400000
vt 0.800000 0.500000
vt 0.900000 0.500000
vt 0.900000 0.600000
vt 0.900000 0.800000
vt 1.000000 0.000000
vt 0.900000 0.000000
vt 1.000000 0.200000
vt 0.900000 0.300000
vt 1.000000 0.400000
vt 1.000000 0.500000
vt 1.000000 0.600000
vt 0.900000 0.700000
vt 1.000000 0.700000
vt 1.000000 1.000000
vt 1.000000 0.100000
vt 1.000000 0.300000
vt 1.000000 0.800000
s 0
usemtl Ground
f 31/1/1 32/2/1 121/3/1
f 5/4/2 40/5/2 3/6/2
f 58/7/3 40/5/3 49/8/3
f 67/9/4 39/10/4 58/7/4
f 67/9/5 37/11/5 38/12/5
f 85/13/6 37/11/6 76/14/6
f 85/13/7 35/15/7 36/16/7
f 103/17/8 35/15/8 94/18/8
f 112/19/9 34/20/9 103/17/9
f 121/3/10 33/21/10 112/19/10
f 14/22/11 13/23/11 1/24/11
f 13/23/12 42/25/12 12/26/12
f 12/26/13 43/27/13 11/28/13
f 43/27/14 10/29/14 11/28/14
f 44/30/15 9/31/15 10/29/15
f 9/31/16 46/32/16 8/33/16
f 8/33/17 47/34/17 7/35/17
f 47/34/18 6/36/18 7/35/18
f 6/36/19 49/8/19 5/4/19
f 14/22/20 50/37/20 41/38/20
f 41/38/21 51/39/21 42/25/21
f 42/25/22 52/40/22 43/27/22
f 43/27/23 53/41/23 44/30/23
f 44/30/24 54/42/24 45/43/24
f 54/42/25 46/32/25 45/43/25
f 55/44/26 47/34/26 46/32/26
f 56/45/27 48/46/27 47/34/27
f 48/46/28 58/7/28 49/8/28
f 15/47/29 59/48/29 50/37/29
f 59/48/30 51/39/30 50/37/30
f 51/39/31 61/49/31 52/40/31
f 61/49/32 53/41/32 52/40/32
f 53/41/33 63/50/33 54/42/33
f 54/42/34 64/51/34 55/44/34
f 64/51/35 56/45/35 55/44/35
f 65/52/36 57/53/36 56/45/36
f 57/53/37 67/9/37 58/7/37
f 16/54/38 68/55/38 59/48/38
f 68/55/39 60/56/39 59/48/39
f 60/56/40 70/57/40 61/49/40
f 61/49/41 71/58/41 62/59/41
f 71/58/42 63/50/42 62/59/42
f 72/60/43 64/51/43 63/50/43
f 73/61/44 65/52/44 64/51/44
f 65/52/45 75/62/45 66/63/45
f 66/63/46 76/14/46 67/9/46
f 17/64/47 77/65/47 68/55/47
f 77/65/48 69/66/48 68/55/48
f 69/66/49 79/67/49 70/57/49
f 70/57/50 80/68/50 71/58/50
f 71/58/51 81/69/51 72/60/51
f 72/60/52 82/70/52 73/61/52
f 82/70/53 74/71/53 73/61/53
f 74/71/54 84/72/54 75/62/54
f 84/72/55 76/14/55 75/62/55
f 18/73/56 86/74/56 77/65/56
f 77/65/57 87/75/57 78/76/57
f 78/76/58 88/77/58 79/67/58
f 79/67/59 89/78/59 80/68/59
f 80/68/60 90/79/60 81/69/60
f 90/79/61 82/70/61 81/69/61
f 91/80/62 83/81/62 82/70/62
f 83/81/63 93/82/63 84/72/63
f 84/72/64 94/18/64 85/13/64
f 20/83/65 86/74/65 19/84/65
f 95/85/66 87/75/66 86/74/66
f 87/75/67 97/86/67 88/77/67
f 97/86/68 89/78/68 88/77/68
f 89/78/69 99/87/69 90/79/69
f 99/87/70 91/80/70 90/79/70
f 100/88/71 92/89/71 91/80/71
f 101/90/72 93/82/72 92/89/72
f 93/82/73 103/17/73 94/18/73
f 21/91/74 95/85/74 20/83/74
f 95/85/75 105/92/75 96/93/75
f 105/92/76 97/86/76 96/93/76
f 106/94/77 98/95/77 97/86/77
f 107/96/78 99/87/78 98/95/78
f 99/87/79 109/97/79 100/88/79
f 100/88/80 110/98/80 101/90/80
f 101/90/81 111/99/81 102/100/81
f 102/100/82 112/19/82 103/17/82
f 21/91/83 113/101/83 104/102/83
f 104/102/84 114/103/84 105/92/84
f 114/103/85 106/94/85 105/92/85
f 106/94/86 116/104/86 107/96/86
f 116/104/87 108/105/87 107/96/87
f 117/106/88 109/97/88 108/105/88
f 118/107/89 110/98/89 109/97/89
f 110/98/90 120/108/90 111/99/90
f 111/99/91 121/3/91 112/19/91
f 2/109/92 113/101/92 22/110/92
f 113/101/93 24/111/93 114/103/93
f 24/111/94 115/112/94 114/103/94
f 115/112/95 26/113/95 116/104/95
f 26/113/96 117/106/96 116/104/96
f 27/114/97 118/107/97 117/106/97
f 28/115/98 119/116/98 118/107/98
f 29/117/99 120/108/99 119/116/99
f 120/108/100 31/1/100 121/3/100
f 31/1/101 4/118/101 32/2/101
f 5/4/102 49/8/102 40/5/102
f 58/7/103 39/10/103 40/5/103
f 67/9/104 38/12/104 39/10/104
f 67/9/105 76/14/105 37/11/105
f 85/13/106 36/16/106 37/11/106
f 85/13/107 94/18/107 35/15/107
f 103/17/108 34/20/108 35/15/108
f 112/19/109 33/21/109 34/20/109
f 121/3/110 32/2/110 33/21/110
f 14/22/111 41/38/111 13/23/111
f 13/23/112 41/38/112 42/25/112
f 12/26/113 42/25/113 43/27/113
f 43/27/114 44/30/114 10/29/114
f 44/30/115 45/43/115 9/31/115
f 9/31/116 45/43/116 46/32/116
f 8/33/117 46/32/117 47/34/117
f 47/34/118 48/46/118 6/36/118
f 6/36/119 48/46/119 49/8/119
f 14/22/120 15/47/120 50/37/120
f 41/38/121 50/37/121 51/39/121
f 42/25/122 51/39/122 52/40/122
f 43/27/123 52/40/123 53/41/123
f 44/30/124 53/41/124 54/42/124
f 54/42/125 55/44/125 46/32/125
f 55/44/126 56/45/126 47/34/126
f 56/45/127 57/53/127 48/46/127
f 48/46/128 57/53/128 58/7/128
f 15/47/129 16/54/129 59/48/129
f 59/48/130 60/56/130 51/39/130
f 51/39/131 60/56/131 61/49/131
f 61/49/132 62/59/132 53/41/132
f 53/41/133 62/59/133 63/50/133
f 54/42/134 63/50/134 64/51/134
f 64/51/135 65/52/135 56/45/135
f 65/52/136 66/63/136 57/53/136
f 57/53/137 66/63/137 67/9/137
f 16/54/138 17/64/138 68/55/138
f 68/55/139 69/66/139 60/56/139
f 60/56/140 69/66/140 70/57/140
f 61/49/141 70/57/141 71/58/141
f 71/58/142 72/60/142 63/50/142
f 72/60/143 73/61/143 64/51/143
f 73/61/144 74/71/144 65/52/144
f 65/52/145 74/71/145 75/62/145
f 66/63/146 75/62/146 76/14/146
f 17/64/147 18/73/147 77/65/147
f 77/65/148 78/76/148 69/66/148
f 69/66/149 78/76/149 79/67/149
f 70/57/150 79/67/150 80/68/150
f 71/58/151 80/68/151 81/69/151
f 72/60/152 81/69/152 82/70/152
f 82/70/153 83/81/153 74/71/153
f 74/71/154 83/81/154 84/72/154
f 84/72/155 85/13/155 76/14/155
f 18/73/156 19/84/156 86/74/156
f 77/65/157 86/74/157 87/75/157
f 78/76/158 87/75/158 88/77/158
f 79/67/159 88/77/159 89/78/159
f 80/68/160 89/78/160 90/79/160
f 90/79/161 91/80/161 82/70/161
f 91/80/162 92/89/162 83/81/162
f 83/81/163 92/89/163 93/82/163
f 84/72/164 93/82/164 94/18/164
f 20/83/165 95/85/165 86/74/165
f 95/85/166 96/93/166 87/75/166
f 87/75/167 96/93/167 97/86/167
f 97/86/168 98/95/168 89/78/168
f 89/78/169 98/95/169 99/87/169
f 99/87/170 100/88/170 91/80/170
f 100/88/171 101/90/171 92/89/171
f 101/90/172 102/100/172 93/82/172
f 93/82/173 102/100/173 103/17/173
f 21/91/174 104/102/174 95/85/174
f 95/85/175 104/102/175 105/92/175
f 105/92/176 106/94/176 97/86/176
f 106/94/177 107/96/177 98/95/177
f 107/96/178 108/105/178 99/87/178
f 99/87/179 108/105/179 109/97/179
f 100/88/180 109/97/180 110/98/180
f 101/90/181 110/98/181 111/99/181
f 102/100/182 111/99/182 112/19/182
f 21/91/183 22/110/183 113/101/183
f 104/102/184 113/101/184 114/103/184
f 114/103/185 115/112/185 106/94/185
f 106/94/186 115/112/186 116/104/186
f 116/104/187 117/106/187 108/105/187
f 117/106/188 118/107/188 109/97/188
f 118/107/189 119/116/189 110/98/189
f 110/98/190 119/116/190 120/108/190
f 111/99/191 120/108/191 121/3/191
f 2/109/192 23/119/192 113/101/192
f 113/101/193 23/119/193 24/111/193
f 24/111/194 25/120/194 115/112/194
f 115/112/195 25/120/195 26/113/195
f 26/113/196 27/114/196 117/106/196
f 27/114/197 28/115/197 118/107/197
f 28/115/198 29/117/198 119/116/198
f 29/117/199 30/121/199 120/108/199
f 120/108/200 30/121/200 31/1/200
